<?xml version="1.0" encoding="UTF-8" standalone="no"?>
<!-- Created with Inkscape (http://www.inkscape.org/) -->

<svg
   xmlns:dc="http://purl.org/dc/elements/1.1/"
   xmlns:cc="http://creativecommons.org/ns#"
   xmlns:rdf="http://www.w3.org/1999/02/22-rdf-syntax-ns#"
   xmlns:svg="http://www.w3.org/2000/svg"
   xmlns="http://www.w3.org/2000/svg"
   xmlns:sodipodi="http://sodipodi.sourceforge.net/DTD/sodipodi-0.dtd"
   xmlns:inkscape="http://www.inkscape.org/namespaces/inkscape"
   width="410.20102"
   height="138.14171"
   id="svg2"
   version="1.1"
   inkscape:version="0.48.2 r9819"
   sodipodi:docname="logo.svg">
  <defs
     id="defs4" />
  <sodipodi:namedview
     id="base"
     pagecolor="#ffffff"
     bordercolor="#666666"
     borderopacity="1.0"
     inkscape:pageopacity="0"
     inkscape:pageshadow="2"
     inkscape:zoom="0.98994949"
     inkscape:cx="223.15195"
     inkscape:cy="79.148951"
     inkscape:document-units="px"
     inkscape:current-layer="g3970"
     showgrid="false"
     showguides="true"
     inkscape:guide-bbox="true"
     inkscape:window-width="1052"
     inkscape:window-height="698"
     inkscape:window-x="124"
     inkscape:window-y="185"
     inkscape:window-maximized="0"
     fit-margin-top="5"
     fit-margin-left="5"
     fit-margin-right="5"
     fit-margin-bottom="5"
     showborder="true"
     borderlayer="false"
     inkscape:showpageshadow="false" />
  <metadata
     id="metadata7">
    <rdf:RDF>
      <cc:Work
         rdf:about="">
        <dc:format>image/svg+xml</dc:format>
        <dc:type
           rdf:resource="http://purl.org/dc/dcmitype/StillImage" />
        <dc:title />
      </cc:Work>
    </rdf:RDF>
  </metadata>
  <g
     inkscape:label="Layer 1"
     inkscape:groupmode="layer"
     id="layer1"
     transform="translate(5,-977.07773)">
    <flowRoot
       xml:space="preserve"
       id="flowRoot2985"
       style="font-size:12px;font-style:normal;font-variant:normal;font-weight:300;font-stretch:normal;text-align:start;line-height:125%;letter-spacing:0px;word-spacing:0px;writing-mode:lr-tb;text-anchor:start;fill:#000000;fill-opacity:1;stroke:none;font-family:Hattori Hanzo;-inkscape-font-specification:Hattori Hanzo Light"><flowRegion
         id="flowRegion2987"><rect
           id="rect2989"
           width="97.14286"
           height="82.85714"
           x="154.28572"
           y="340.93362" /></flowRegion><flowPara
         id="flowPara2991" /></flowRoot>    <g
       transform="translate(-74.112399,411.4583)"
       style="font-size:12px;font-style:normal;font-variant:normal;font-weight:300;font-stretch:normal;text-align:start;line-height:125%;letter-spacing:0px;word-spacing:0px;writing-mode:lr-tb;text-anchor:start;fill:#000000;fill-opacity:1;stroke:none;font-family:Hattori Hanzo;-inkscape-font-specification:Hattori Hanzo Light"
       id="flowRoot2993">
      <g
         id="g3970"
         transform="translate(-24.009476,103.56118)">
        <g
           id="g3105">
          <path
             inkscape:connector-curvature="0"
             d="m 151.79195,531.66744 2.05107,0 c -6e-5,6.00136 -0.9876,10.3694 -2.96267,13.10417 -1.93717,2.73477 -4.3681,4.10216 -7.29274,4.10216 -2.39298,0 -4.69097,-0.89259 -6.89394,-2.6778 -2.20304,-1.82317 -4.17816,-6.66601 -5.92535,-14.52853 l -4.89983,-22.10614 -16.97843,38.51483 -10.768185,0 24.385115,-52.53057 c -1.29142,-6.79891 -2.84875,-11.83165 -4.67191,-15.09828 -1.82321,-3.26646 -4.08319,-4.89975 -6.77998,-4.89982 -2.16504,7e-5 -4.0642,0.83572 -5.69745,2.50688 -1.5953,1.63335 -2.48789,4.17823 -2.67782,7.6346 l -2.05107,0 c 0.11395,-5.58343 1.23446,-10.04642 3.36149,-13.38903 2.12706,-3.38041 4.78586,-5.07065 7.97645,-5.07075 2.05109,1e-4 3.98819,0.85473 5.8114,2.56388 1.86118,1.67133 3.45643,4.55803 4.78588,8.66014 1.36735,4.06425 3.47543,12.51547 6.32416,25.35369 l 4.0452,18.06094 c 1.63326,7.4827 3.3425,12.49646 5.12773,15.04131 1.82315,2.50689 3.98817,3.76033 6.4951,3.76031 4.25405,2e-5 6.66598,-3.00063 7.23578,-9.00199"
             style="font-size:64px;font-weight:normal;text-align:center;letter-spacing:-2.0999999px;text-anchor:middle;font-family:Times New Roman;-inkscape-font-specification:Times New Roman"
             id="path3933" />
          <path
             d="m 153.83976,530.76168 -2.05109,0 c 6e-5,-6.00133 0.98762,-10.36938 2.96269,-13.10415 1.93717,-2.73478 4.3681,-4.10218 7.29274,-4.10218 2.39298,0 4.69095,0.8926 6.89394,2.67782 2.20304,1.82316 4.17816,6.666 5.92535,14.52851 l 4.89983,22.10616 16.97843,-38.51484 10.76819,0 -24.38512,52.53059 c 1.29142,6.79891 2.84873,11.83165 4.6719,15.09827 1.82321,3.26646 4.0832,4.89974 6.77999,4.89981 2.16504,-7e-5 4.0642,-0.8357 5.69745,-2.50689 1.59529,-1.63333 2.48789,-4.1782 2.67781,-7.63459 l 2.05109,0 c -0.11397,5.58345 -1.23445,10.04644 -3.3615,13.38903 -2.12706,3.38041 -4.78586,5.07065 -7.97645,5.07074 -2.05107,-9e-5 -3.98821,-0.8547 -5.8114,-2.56385 -1.86116,-1.67133 -3.45645,-4.55803 -4.78588,-8.66014 -1.36737,-4.06427 -3.47543,-12.5155 -6.32418,-25.35371 l -4.0452,-18.06094 c -1.63324,-7.48268 -3.34248,-12.49646 -5.12771,-15.04129 -1.82315,-2.50691 -3.98819,-3.76035 -6.4951,-3.76033 -4.25406,-2e-5 -6.66598,3.00065 -7.23578,9.00198"
             style="font-size:64px;font-weight:normal;text-align:center;letter-spacing:-2.0999999px;text-anchor:middle;fill:#ff6600;font-family:Times New Roman;-inkscape-font-specification:Times New Roman"
             id="path3935"
             inkscape:connector-curvature="0" />
          <path
             inkscape:connector-curvature="0"
             d="m 223.67109,467.05825 0,69.22414 c -1e-5,3.26657 0.22789,5.43159 0.6837,6.4951 0.49376,1.06354 1.23443,1.88019 2.22201,2.44992 0.98756,0.53176 2.82971,0.79765 5.52654,0.79765 l 0,2.05107 -25.58159,0 0,-2.05107 c 2.39294,0 4.02619,-0.24689 4.89981,-0.74068 0.87359,-0.49377 1.55729,-1.3104 2.05109,-2.44991 0.49378,-1.13947 0.74066,-3.3235 0.74066,-6.55208 l 0,-47.40287 c 0,-5.88731 -0.13293,-9.49569 -0.39882,-10.82518 -0.2659,-1.36732 -0.70269,-2.29787 -1.31041,-2.79175 -0.56974,-0.49371 -1.31042,-0.74059 -2.22202,-0.74066 -0.98756,7e-5 -2.241,0.30394 -3.76031,0.9116 l -0.96858,-1.99413 15.55407,-6.38115 2.56385,0"
             style="font-size:64px;font-weight:normal;text-align:center;letter-spacing:-2.0999999px;text-anchor:middle;font-family:Times New Roman;-inkscape-font-specification:Times New Roman"
             id="path3937" />
          <path
             inkscape:connector-curvature="0"
             d="m 263.8268,540.55548 c -5.35563,4.14017 -8.71713,6.5331 -10.0845,7.1788 -2.05111,0.9496 -4.23515,1.42438 -6.55209,1.42438 -3.6084,0 -6.59006,-1.23445 -8.945,-3.70335 -2.31697,-2.46889 -3.47545,-5.71644 -3.47545,-9.74267 0,-2.54483 0.56973,-4.74784 1.70922,-6.60905 1.55729,-2.58282 4.25412,-5.01372 8.0904,-7.29275 3.87426,-2.27895 10.29339,-5.0517 19.25742,-8.31829 l 0,-2.05109 c -4e-5,-5.20364 -0.83565,-8.77403 -2.50689,-10.71123 -1.63329,-1.93707 -4.02623,-2.90565 -7.1788,-2.9057 -2.39294,5e-5 -4.29211,0.64579 -5.69745,1.93714 -1.44336,1.29148 -2.16506,2.77281 -2.16504,4.44403 l 0.11397,3.30451 c -2e-5,1.74728 -0.45582,3.09568 -1.3674,4.0452 -0.87361,0.94963 -2.0321,1.42441 -3.47545,1.42438 -1.40537,3e-5 -2.56385,-0.49375 -3.47545,-1.48134 -0.87361,-0.98753 -1.3104,-2.33592 -1.3104,-4.0452 0,-3.2665 1.67124,-6.26717 5.01375,-9.00199 3.3425,-2.73473 8.03341,-4.10212 14.07273,-4.10218 4.63391,6e-5 8.43221,0.77872 11.39493,2.33595 2.24097,1.17754 3.89323,3.01973 4.95679,5.52654 0.68366,1.63333 1.02549,4.97583 1.02553,10.02754 l 0,17.71911 c -4e-5,4.97579 0.095,8.03343 0.28488,9.1729 0.18986,1.10151 0.49375,1.8422 0.9116,2.22201 0.45576,0.37985 0.96852,0.56976 1.53831,0.56975 0.60769,1e-5 1.13945,-0.13294 1.59529,-0.39882 0.79761,-0.49378 2.3359,-1.88015 4.61494,-4.15914 l 0,3.19056 c -4.25415,5.69747 -8.31833,8.54619 -12.19257,8.54619 -1.86119,0 -3.34254,-0.64569 -4.44401,-1.93714 -1.10153,-1.29141 -1.67128,-3.49441 -1.70924,-6.60905 m 0,-3.70335 0,-19.88413 c -5.73548,2.27903 -9.43881,3.8933 -11.11005,4.84284 -3.00067,1.67128 -5.14671,3.41852 -6.43813,5.24166 -1.29143,1.82321 -1.93716,3.81732 -1.93714,5.98234 -2e-5,2.7348 0.81662,5.01379 2.44992,6.83695 1.63326,1.7852 3.51339,2.67784 5.64047,2.67782 2.8867,2e-5 6.685,-1.89916 11.39493,-5.69748"
             style="font-size:64px;font-weight:normal;text-align:center;letter-spacing:-2.0999999px;text-anchor:middle;font-family:Times New Roman;-inkscape-font-specification:Times New Roman"
             id="path3939" />
          <path
             inkscape:connector-curvature="0"
             d="m 315.89019,494.34908 0,17.77608 -1.88016,0 c -1.44337,-5.58345 -3.30455,-9.38175 -5.58352,-11.39493 -2.24102,-2.01305 -5.10872,-3.0196 -8.60316,-3.01965 -2.65882,5e-5 -4.80485,0.70275 -6.43813,2.10807 -1.63328,1.40542 -2.4499,2.96273 -2.4499,4.67191 0,2.1271 0.60773,3.95029 1.82319,5.46956 1.17746,1.55736 3.57039,3.20962 7.17879,4.95679 l 8.3183,4.0452 c 7.71052,3.76037 11.5658,8.71714 11.56584,14.87037 -4e-5,4.74792 -1.80423,8.5842 -5.41259,11.50888 -3.57044,2.88672 -7.57763,4.33006 -12.02164,4.33006 -3.1906,0 -6.83697,-0.56975 -10.93913,-1.70924 -1.25343,-0.37981 -2.27897,-0.56975 -3.07662,-0.56975 -0.87361,0 -1.55731,0.4938 -2.05109,1.48134 l -1.88015,0 0,-18.63069 1.88015,0 c 1.06353,5.31766 3.0956,9.32486 6.09629,12.02164 3.00065,2.69681 6.36215,4.0452 10.0845,4.0452 2.62082,0 4.74785,-0.75964 6.38115,-2.27899 1.67122,-1.55729 2.50687,-3.41845 2.50689,-5.5835 -2e-5,-2.62082 -0.93062,-4.82383 -2.79176,-6.60905 -1.82321,-1.78517 -5.48857,-4.04518 -10.99609,-6.77999 -5.50756,-2.73475 -9.11594,-5.20365 -10.82518,-7.40669 -1.70924,-2.16501 -2.56385,-4.89977 -2.56385,-8.20435 0,-4.29204 1.46234,-7.88143 4.38704,-10.76819 2.96267,-2.88667 6.77995,-4.33002 11.45189,-4.33008 2.05108,6e-5 4.53896,0.43687 7.46367,1.31043 1.93712,0.5698 3.22854,0.85466 3.87428,0.85461 0.60771,5e-5 1.08247,-0.13293 1.42436,-0.39881 0.34181,-0.26583 0.74064,-0.85458 1.19647,-1.76623 l 1.88016,0"
             style="font-size:64px;font-weight:normal;text-align:center;letter-spacing:-2.0999999px;text-anchor:middle;font-family:Times New Roman;-inkscape-font-specification:Times New Roman"
             id="path3941" />
          <path
             inkscape:connector-curvature="0"
             d="m 366.97363,467.05825 0,69.22414 c -2e-5,3.26657 0.22788,5.43159 0.68369,6.4951 0.49375,1.06354 1.23443,1.88019 2.22201,2.44992 0.98752,0.53176 2.82972,0.79765 5.52654,0.79765 l 0,2.05107 -25.58161,0 0,-2.05107 c 2.39292,0 4.0262,-0.24689 4.89983,-0.74068 0.87359,-0.49377 1.55729,-1.3104 2.05107,-2.44991 0.49378,-1.13947 0.74066,-3.3235 0.74068,-6.55208 l 0,-47.40287 c -2e-5,-5.88731 -0.13293,-9.49569 -0.39883,-10.82518 -0.26588,-1.36732 -0.70268,-2.29787 -1.31041,-2.79175 -0.56977,-0.49371 -1.31043,-0.74059 -2.22201,-0.74066 -0.98756,7e-5 -2.241,0.30394 -3.76033,0.9116 l -0.96856,-1.99413 15.55405,-6.38115 2.56388,0"
             style="font-size:64px;font-weight:normal;text-align:center;letter-spacing:-2.0999999px;text-anchor:middle;font-family:Times New Roman;-inkscape-font-specification:Times New Roman"
             id="path3943" />
          <path
             inkscape:connector-curvature="0"
             d="m 390.83459,467.05825 c 1.59528,9e-5 2.94367,0.56984 4.0452,1.70924 1.13948,1.10159 1.70922,2.45 1.70924,4.0452 -2e-5,1.59536 -0.56976,2.96274 -1.70924,4.10216 -1.10153,1.13957 -2.44992,1.70932 -4.0452,1.70924 -1.59529,8e-5 -2.96268,-0.56967 -4.10216,-1.70924 -1.13951,-1.13942 -1.70926,-2.5068 -1.70924,-4.10216 -2e-5,-1.5952 0.55073,-2.94361 1.65226,-4.0452 1.13947,-1.1394 2.52587,-1.70915 4.15914,-1.70924 m 4.7289,27.29083 0,41.93331 c -2e-5,3.26657 0.22788,5.45059 0.68369,6.55208 0.49377,1.06355 1.19645,1.86118 2.10806,2.39294 0.94956,0.53176 2.6588,0.79765 5.12773,0.79765 l 0,2.05107 -25.35371,0 0,-2.05107 c 2.54487,0 4.25411,-0.24689 5.12772,-0.74068 0.8736,-0.49377 1.55729,-1.3104 2.05109,-2.44991 0.53175,-1.13947 0.79761,-3.3235 0.79763,-6.55208 l 0,-20.11204 c -2e-5,-5.65943 -0.17104,-9.32479 -0.51276,-10.99609 -0.2659,-1.21541 -0.68372,-2.05104 -1.25345,-2.50689 -0.56976,-0.49371 -1.34841,-0.74061 -2.33595,-0.74066 -1.06355,5e-5 -2.35496,0.28492 -3.87428,0.85461 l -0.79765,-2.05109 15.72501,-6.38115 2.50687,0"
             style="font-size:64px;font-weight:normal;text-align:center;letter-spacing:-2.0999999px;text-anchor:middle;font-family:Times New Roman;-inkscape-font-specification:Times New Roman"
             id="path3945" />
          <path
             inkscape:connector-curvature="0"
             d="m 439.82135,494.34908 0,17.77608 -1.88017,0 c -1.44338,-5.58345 -3.30456,-9.38175 -5.58351,-11.39493 -2.24102,-2.01305 -5.10874,-3.0196 -8.60315,-3.01965 -2.65884,5e-5 -4.80488,0.70275 -6.43814,2.10807 -1.63329,1.40542 -2.44992,2.96273 -2.4499,4.67191 -2e-5,2.1271 0.60771,3.95029 1.82317,5.46956 1.17748,1.55736 3.57042,3.20962 7.17882,4.95679 l 8.31829,4.0452 c 7.71052,3.76037 11.5658,8.71714 11.56584,14.87037 -4e-5,4.74792 -1.80423,8.5842 -5.41259,11.50888 -3.57044,2.88672 -7.57765,4.33006 -12.02164,4.33006 -3.1906,0 -6.83697,-0.56975 -10.93913,-1.70924 -1.25344,-0.37981 -2.27899,-0.56975 -3.07663,-0.56975 -0.87362,0 -1.55731,0.4938 -2.05108,1.48134 l -1.88017,0 0,-18.63069 1.88017,0 c 1.06351,5.31766 3.0956,9.32486 6.09627,12.02164 3.00067,2.69681 6.36215,4.0452 10.08452,4.0452 2.6208,0 4.74786,-0.75964 6.38115,-2.27899 1.67122,-1.55729 2.50685,-3.41845 2.50689,-5.5835 -4e-5,-2.62082 -0.93062,-4.82383 -2.79175,-6.60905 -1.82321,-1.78517 -5.4886,-4.04518 -10.99612,-6.77999 -5.50755,-2.73475 -9.11594,-5.20365 -10.82516,-7.40669 -1.70924,-2.16501 -2.56387,-4.89977 -2.56387,-8.20435 0,-4.29204 1.46234,-7.88143 4.38704,-10.76819 2.96267,-2.88667 6.77997,-4.33002 11.45191,-4.33008 2.05106,6e-5 4.53895,0.43687 7.46367,1.31043 1.9371,0.5698 3.22853,0.85466 3.87428,0.85461 0.60769,5e-5 1.08247,-0.13293 1.42436,-0.39881 0.34181,-0.26583 0.74062,-0.85458 1.19646,-1.76623 l 1.88017,0"
             style="font-size:64px;font-weight:normal;text-align:center;letter-spacing:-2.0999999px;text-anchor:middle;font-family:Times New Roman;-inkscape-font-specification:Times New Roman"
             id="path3947" />
          <path
             inkscape:connector-curvature="0"
             d="m 443.85517,501.07208 16.06684,-6.4951 2.16504,0 0,12.19257 c 2.69678,-4.59589 5.39357,-7.80547 8.09039,-9.62872 2.73473,-1.8611 5.60247,-2.79169 8.60316,-2.79175 5.24163,6e-5 9.60968,2.05115 13.10416,6.15327 4.29203,5.01381 6.43807,11.5469 6.43812,19.59925 -5e-5,9.00201 -2.58289,16.44669 -7.74854,22.33406 -4.25415,4.82386 -9.60974,7.23576 -16.06684,7.23576 -2.81077,0 -5.24168,-0.39881 -7.29275,-1.19646 -1.51932,-0.56975 -3.22856,-1.70924 -5.1277,-3.41848 l 0,15.89592 c -2e-5,3.5704 0.20888,5.83038 0.62671,6.77998 0.45578,0.98754 1.21544,1.76619 2.27899,2.33596 1.10149,0.56972 3.0766,0.85459 5.92535,0.85461 l 0,2.10805 -27.34781,0 0,-2.10805 1.42437,0 c 2.08906,0.0379 3.87427,-0.36087 5.35561,-1.19646 0.72168,-0.41782 1.27243,-1.10151 1.65226,-2.05109 0.41781,-0.91162 0.62673,-3.26655 0.62673,-7.06485 l 0,-49.34 c 0,-3.38045 -0.1519,-5.52649 -0.4558,-6.43814 -0.30388,-0.91154 -0.79764,-1.59524 -1.48134,-2.05109 -0.64571,-0.45574 -1.53831,-0.68364 -2.6778,-0.6837 -0.9116,6e-5 -2.07009,0.26594 -3.47545,0.79765 l -0.6837,-1.82319 m 18.23188,9.05897 0,19.48532 c -2e-5,4.21613 0.17086,6.98888 0.51276,8.31829 0.53175,2.20303 1.82317,4.14017 3.87428,5.81141 2.08904,1.67126 4.70987,2.50688 7.86249,2.50688 3.79828,0 6.8749,-1.48132 9.22989,-4.44402 3.07658,-3.87425 4.61491,-9.32482 4.61493,-16.3517 -2e-5,-7.97643 -1.74726,-14.11068 -5.24166,-18.40281 -2.43094,-2.96262 -5.31766,-4.44396 -8.66014,-4.44401 -1.82321,5e-5 -3.62742,0.45585 -5.41259,1.36739 -1.36741,0.68373 -3.62738,2.73482 -6.77996,6.15325"
             style="font-size:64px;font-weight:normal;text-align:center;letter-spacing:-2.0999999px;text-anchor:middle;font-family:Times New Roman;-inkscape-font-specification:Times New Roman"
             id="path3949" />
        </g>
      </g>
    </g>
  </g>
</svg>
